# xmcd CD database file
#
# Track frame offsets:
#	150
#	19348
#	41786
#	63031
#	88798
#	103053
#	124088
#	143319
#	173806
#	186999
#	218655
#
# Disc length: 3166 seconds
#
# Revision: 0
# Processed by: cddbd v1.5.1PL2 Copyright (c) Steve Scherf et al.
# Submitted via: CDex 1.51
#
DISCID=940c5c0b
DTITLE=mahogani music - mahogani music
DYEAR=2005
DGENRE=Techno
TTITLE0=In a Better Way - Malik Alston, Jason Hogans, John Arnold
TTITLE1=Everything - Dwayne Morgan
TTITLE2=Emily - Pirahnahead
TTITLE3=SweetButterfly - Charles Webster
TTITLE4=Runaway - Pitch Black City
TTITLE5=Step Pattern - Andres
TTITLE6=Kung Fu - Dirtbombs
TTITLE7=Find a Way - Diviniti
TTITLE8=Idle Time - Randolph
TTITLE9=Sky - Aaron Carl
TTITLE10=Which One - Voltaire Brothers
EXTD=YEAR: 2005
EXTT0=
EXTT1=
EXTT2=
EXTT3=
EXTT4=
EXTT5=
EXTT6=
EXTT7=
EXTT8=
EXTT9=
EXTT10=
PLAYORDER=
